<svg width="135" height="190" viewBox="0 0 135 190" fill="none" xmlns="http://www.w3.org/2000/svg">
<path d="M-55.4049 186.049C-57.3517 182.934 -58.393 179.322 -59.1401 175.778C-59.9097 172.053 -60.2493 168.283 -59.7966 164.49C-59.3891 161.036 -57.9856 157.424 -55.5407 154.873C-50.6737 149.793 -42.7733 148.958 -36.6839 152.344C-33.6958 154.015 -31.2962 156.408 -29.2815 159.117C-26.9725 162.232 -25.2294 165.686 -23.1467 168.915C-22.5355 169.795 -21.9243 170.653 -21.2452 171.488C-20.7698 172.007 -20.2718 172.504 -19.7512 172.978C-19.4116 173.249 -19.0721 173.52 -18.7099 173.791C-18.2571 174.062 -17.827 174.31 -17.3743 174.558C-16.7404 174.852 -16.1066 175.123 -15.4501 175.371C-14.771 175.574 -14.1145 175.732 -13.4354 175.89C-12.6884 176.003 -11.9639 176.116 -11.2169 176.184C-10.6283 176.207 -10.0398 176.229 -9.4512 176.207C-8.77208 176.139 -8.11556 176.049 -7.43645 175.936C-6.96106 175.823 -6.48573 175.687 -6.01035 175.529C-5.51233 175.326 -5.01426 175.123 -4.53887 174.92C-4.17667 174.716 -3.81452 174.513 -3.45232 174.287C-2.99958 173.971 -2.59211 173.633 -2.18464 173.317C-1.79981 172.956 -1.41497 172.572 -1.05278 172.188C-0.849041 171.962 -0.690533 171.714 -0.509434 171.488C-0.124599 170.901 0.214966 170.314 0.554523 169.705C0.871445 169.028 1.16569 168.305 1.43734 167.583C1.70899 166.702 1.95802 165.822 2.16175 164.919C2.36549 163.79 2.52398 162.684 2.61453 161.555C2.6598 160.585 2.6598 159.614 2.61453 158.643C2.52398 157.582 2.36549 156.543 2.16175 155.505C1.8901 154.241 1.52788 152.976 1.14305 151.735C0.373379 149.613 -0.554756 147.558 -1.5508 145.527C-1.5508 145.549 -1.52812 145.572 -1.50548 145.617C-2.95427 142.84 -4.5615 140.177 -6.30458 137.58C-8.83996 133.923 -11.647 130.447 -14.1145 126.744C-15.4048 124.803 -16.6951 122.861 -17.9854 120.92C-19.5701 118.549 -20.9283 115.976 -22.2413 113.47C-23.6901 110.671 -25.0257 107.803 -26.2028 104.891C-28.5118 99.2475 -30.2096 93.3779 -31.2962 87.3955C-32.3601 81.5485 -32.6544 75.4534 -31.7942 69.5613C-31.4094 66.9651 -30.7529 64.3913 -29.7116 61.9758C-28.6023 59.4473 -27.0177 57.348 -24.9125 55.6097C-20.6566 52.1105 -14.5899 51.4106 -9.29272 51.8621C-6.64416 52.0879 -4.06354 52.6073 -1.5508 53.4877C1.16568 54.4359 3.63318 55.7678 5.98746 57.4158C10.7639 60.7118 14.4765 65.4072 17.6683 70.1706C20.4301 74.2793 22.8749 78.6364 25.2744 82.9708C27.6514 87.2827 29.9604 91.6398 32.2241 96.042C34.0351 99.5411 35.7103 103.085 37.476 106.607C38.7889 109.271 40.1245 111.935 41.4601 114.599C41.4375 114.554 41.4375 114.531 41.4148 114.508C42.5694 116.676 43.7239 118.843 44.901 121.01C45.8518 122.793 46.8931 124.487 47.9344 126.202C48.9304 127.85 49.9265 129.543 50.9905 131.169C52.3034 133.155 53.6164 135.165 54.952 137.151C57.9854 141.35 60.9056 145.594 64.3012 149.5C65.75 151.103 67.244 152.683 68.8739 154.128C69.9152 155.008 71.0018 155.844 72.1337 156.634C72.9713 157.176 73.8089 157.672 74.6691 158.146C75.8009 158.688 76.9555 159.185 78.1552 159.614C79.4682 160.043 80.7811 160.404 82.1394 160.697C83.3618 160.923 84.6069 161.126 85.8519 161.239C86.5763 161.262 87.2781 161.239 88.0025 161.217C88.5684 161.149 89.1117 161.081 89.655 160.991C89.904 160.923 90.153 160.855 90.402 160.788C90.651 160.675 90.9 160.584 91.1264 160.471C91.5565 160.246 91.964 160.02 92.3715 159.749C92.7337 159.478 93.0959 159.23 93.4354 158.936C93.6391 158.733 93.8429 158.53 94.0466 158.327C94.4088 157.921 94.7257 157.492 95.0426 157.063C95.5633 156.272 96.0387 155.482 96.4688 154.647C96.8989 153.676 97.2837 152.706 97.6459 151.712C98.1666 150.155 98.5967 148.574 98.9363 146.949C99.2532 145.211 99.5022 143.472 99.6833 141.712C99.7738 140.154 99.7738 138.641 99.6833 137.084C99.5475 135.639 99.3438 134.194 99.0721 132.749C98.7099 131.079 98.2345 129.453 97.6913 127.85C96.9669 125.886 96.1519 123.99 95.2237 122.116C94.2277 120.22 93.1411 118.391 91.964 116.585C89.8814 113.538 87.595 110.625 85.1275 107.826C85.2407 107.962 85.3539 108.075 85.467 108.21C81.166 103.379 76.3895 99.0219 71.613 94.6197C70.5717 93.649 69.5531 92.6329 68.5344 91.6396C67.6515 90.7592 66.746 89.9015 65.8631 89.0211C65.4104 88.5922 64.935 88.1857 64.5275 87.7342C63.1467 86.199 61.7885 84.6641 60.4076 83.1064C59.4568 82.0228 58.4381 80.9842 57.5553 79.8328C55.2463 76.8755 52.8467 73.9633 50.7414 70.8479C50.832 70.9834 50.9452 71.1187 51.0357 71.2767C49.8359 69.5159 48.6588 67.7551 47.459 65.9942C47.4817 66.0394 47.5043 66.062 47.527 66.0846C47.21 65.6105 46.8704 65.1138 46.5535 64.6398V64.6624C46.4856 64.5495 46.4177 64.4591 46.3498 64.3463C46.3498 64.3463 46.3498 64.3463 46.3272 64.3463C45.1048 62.4951 44.0634 60.486 42.9542 58.5446C41.0074 55.2034 39.2417 51.7492 37.7024 48.1823C35.3707 42.7643 33.6729 37.0528 32.79 31.2059C32.3599 28.3388 32.3147 25.4944 32.5411 22.6273C32.7901 19.6925 33.7181 16.8706 35.099 14.2745C37.5891 9.62396 42.3656 6.32794 47.3911 4.92828C49.8812 4.22845 52.4845 4.25099 54.9972 4.74764C57.8948 5.31202 60.4981 6.644 62.9882 8.17912C65.2972 9.62393 67.4251 11.3849 69.4398 13.1909C70.7755 14.4099 72.0884 15.6289 73.3561 16.9157C75.0313 18.5863 76.6611 20.2795 78.2457 22.0403C80.9848 25.0203 83.475 28.2034 85.9198 31.4091C88.6589 34.9986 90.968 38.9492 93.9334 42.3806C94.4315 42.9224 94.9521 43.4415 95.518 43.9608C95.9934 44.3446 96.4462 44.7057 96.9442 45.0443C97.1932 45.2024 97.4648 45.3606 97.7138 45.496C98.0081 45.6315 98.3024 45.7667 98.6193 45.8796C98.4609 45.8345 98.3024 45.7669 98.1213 45.7217C98.3929 45.8346 98.6646 45.9249 98.9363 45.97C99.1174 45.9926 99.2985 46.0152 99.457 46.0378C99.5475 46.0378 99.638 46.0378 99.7286 46.0378C99.8192 46.0378 99.887 46.0152 99.9776 45.9926C100.068 45.97 100.136 45.9474 100.227 45.9248C100.362 45.8797 100.498 45.8121 100.634 45.7669C100.566 45.8121 100.476 45.857 100.408 45.8796C100.611 45.7893 100.815 45.6767 100.996 45.5638C101.132 45.4509 101.268 45.3606 101.381 45.2703C101.698 44.9768 101.992 44.6607 102.287 44.3447C102.626 43.9383 102.966 43.5092 103.26 43.0803C104.754 40.7325 105.999 38.2945 107.357 35.8564C108.308 34.2084 109.214 32.5377 110.119 30.8672C110.504 30.0319 110.889 29.1741 111.251 28.3388C109.983 26.4425 108.716 24.5688 107.493 22.6499C105.705 19.828 103.894 17.006 102.309 14.0712C101.675 12.8973 101.087 11.7009 100.566 10.4818C100.091 9.4208 99.6607 8.1791 99.5022 7.02776C99.3438 5.94415 99.3211 4.81538 99.7286 3.77692C100.181 2.62559 100.906 1.51945 101.992 0.864769C103.509 -0.0156641 105.297 0.0746699 106.995 0.0520946C108.036 0.0520946 109.1 0.0294753 110.142 0.00690012C112.451 -0.0156751 114.782 0.006845 117.091 0.232597C119.559 0.480925 122.004 1.0454 124.132 2.30962C124.788 2.69339 125.377 3.19008 125.897 3.75446C127.097 3.09978 128.591 3.00939 129.791 3.79952C130.198 4.07042 130.538 4.36398 130.855 4.72518C131.625 5.65076 131.964 6.80204 131.828 7.90823C131.828 7.9308 131.828 7.95333 131.828 7.99848C132.281 14.5227 133.617 20.9568 134.409 27.4584C134.59 29.0161 134.726 30.5511 134.794 32.1314C134.884 33.7117 135.02 35.2918 134.997 36.8495C134.952 38.8361 134.93 40.8228 134.816 42.8094C134.681 45.0895 134.522 47.4148 133.956 49.6498C133.571 51.2526 133.051 53.0136 131.625 54.0069C130.221 54.9776 128.682 55.0454 127.142 54.3004C126.214 53.8263 125.671 52.9682 125.173 52.0878C124.698 51.2525 124.245 50.3947 123.792 49.5594C122.841 47.8211 121.89 46.0604 120.917 44.3221C119.423 41.6356 117.861 38.9942 116.276 36.3529C115.62 37.572 114.896 38.7684 114.216 39.9649C113.062 41.9967 111.998 44.0738 110.776 46.083C108.851 49.2209 106.271 52.5168 102.536 53.5778C94.9747 55.7225 88.8401 49.4693 84.8785 43.8481C83.0902 41.3422 81.3698 38.7684 79.5135 36.3077C78.5401 34.9984 77.5893 33.6439 76.5253 32.4023C75.4388 31.1155 74.3748 29.8288 73.2882 28.542C70.2775 25.2686 67.2214 22.0403 63.8937 19.0378C62.377 17.7284 60.815 16.4868 59.1852 15.3354C58.257 14.7259 57.3289 14.1841 56.3555 13.6649C55.8801 13.4391 55.4047 13.236 54.9067 13.0328C54.4086 12.8748 53.9106 12.7394 53.4126 12.6039C52.9598 12.5136 52.5298 12.4684 52.077 12.4007C51.6469 12.3781 51.2395 12.3781 50.832 12.4007C50.5603 12.4232 50.3113 12.4684 50.0397 12.5135C49.4737 12.649 48.9305 12.7845 48.3872 12.9651C47.9344 13.1457 47.5043 13.3263 47.0515 13.5294C46.5988 13.7778 46.1687 14.0487 45.7159 14.3196C45.2858 14.6131 44.8784 14.9291 44.4709 15.2452C44.1313 15.5612 43.7918 15.8998 43.4522 16.2159C43.1353 16.5997 42.8183 16.9835 42.5241 17.3898C42.2524 17.7962 42.0034 18.2477 41.7544 18.6766C41.528 19.1507 41.3243 19.6473 41.1432 20.144C40.9847 20.7083 40.8263 21.2727 40.6904 21.8371C40.5546 22.6272 40.4414 23.3949 40.3961 24.185C40.3509 25.246 40.3509 26.307 40.3961 27.3681C40.5546 29.2192 40.8263 31.0254 41.1659 32.854C41.7318 35.5178 42.4788 38.1365 43.3617 40.7101C44.403 43.5997 45.6028 46.4216 46.961 49.1758C48.8626 52.9233 51.0131 56.5127 53.1184 60.1473C53.39 60.5537 53.639 60.9375 53.9106 61.3213C53.888 61.2761 53.8653 61.2534 53.8427 61.2309C55.0199 62.9917 56.2197 64.7525 57.4194 66.5134C57.3289 66.3779 57.2157 66.2426 57.1252 66.0846C57.6005 66.7844 58.0759 67.4841 58.5513 68.1839C58.4608 68.0485 58.3702 67.8906 58.2797 67.7551C59.1399 69.0419 60.2038 70.2384 61.1546 71.4575C62.1959 72.7895 63.2372 74.1214 64.2785 75.4534C65.7726 77.1465 67.2893 78.817 68.7834 80.4876C69.9831 81.8195 71.2056 83.0611 72.4959 84.3253C73.9447 85.7475 75.3708 87.2149 76.8876 88.592C78.7664 90.3303 80.668 92.0687 82.5469 93.807C91.1038 101.663 98.9589 110.806 103.735 121.462C106.112 126.789 107.425 132.478 107.697 138.28C107.81 141.079 107.493 143.901 107.04 146.655C106.565 149.59 105.75 152.435 104.777 155.257C103.894 157.785 102.581 160.088 101.019 162.278C99.4343 164.467 97.2611 166.206 94.8616 167.447C89.8814 169.998 84.0636 169.298 78.8343 168.079C73.3787 166.815 68.4212 164.129 64.1427 160.584C62.0375 158.846 60.1812 156.882 58.3702 154.85C56.6497 152.931 54.952 150.922 53.4579 148.823C51.9639 146.701 50.4245 144.601 48.9305 142.502C47.7533 140.854 46.6667 139.161 45.5575 137.467C44.5162 135.91 43.4748 134.352 42.5241 132.749C41.7318 131.462 40.9621 130.153 40.1698 128.866C39.7171 128.099 39.219 127.376 38.7889 126.586C37.4986 124.17 36.2083 121.755 34.918 119.339C33.8993 117.421 32.9711 115.479 31.9977 113.538C29.8924 109.294 27.8325 105.049 25.7045 100.805C23.5314 96.6063 21.3582 92.4298 19.0718 88.2985C16.378 83.4223 13.6163 78.5234 10.5376 73.8729C9.22462 71.954 7.8211 70.1482 6.28176 68.4099C5.39891 67.4392 4.47075 66.5134 3.49734 65.6329C2.61449 64.8879 1.68636 64.1656 0.735592 63.4884C-0.0793533 62.9692 -0.916901 62.4725 -1.77712 62.021C-2.63733 61.6146 -3.5202 61.2534 -4.40305 60.9374C-5.33118 60.6439 -6.25934 60.3957 -7.18747 60.1699C-8.16087 59.9893 -9.1343 59.8763 -10.1077 59.7634C-11.1717 59.6957 -12.2582 59.6731 -13.2995 59.7182C-14.0692 59.786 -14.8389 59.8763 -15.6086 60.0117C-16.2877 60.1698 -16.9668 60.3503 -17.6459 60.5535C-17.8949 60.6438 -18.1439 60.7567 -18.3929 60.8696C-18.8456 61.1179 -19.2758 61.3664 -19.7059 61.6373C-19.9549 61.818 -20.2265 62.0209 -20.4529 62.2466C-20.634 62.4047 -20.7925 62.5629 -20.9509 62.7435C-21.1094 62.9241 -21.2226 63.1047 -21.381 63.2853C-21.6527 63.7594 -21.9244 64.2109 -22.196 64.6849C-22.4903 65.3171 -22.7619 65.9717 -23.0109 66.6264C-23.2147 67.3262 -23.4184 68.0262 -23.5769 68.726C-23.9164 70.4191 -24.1428 72.0897 -24.2786 73.8054C-24.3692 75.634 -24.3692 77.4399 -24.2786 79.2684C-24.0522 82.2258 -23.6674 85.138 -23.0788 88.0276C-22.3771 91.3011 -21.4943 94.4842 -20.4303 97.6673C-19.0947 101.505 -17.4874 105.207 -15.6765 108.842C-14.0918 111.935 -12.394 114.96 -10.4698 117.849C-9.42852 119.43 -8.38726 120.965 -7.34595 122.545C-4.69738 126.18 -1.95822 129.769 0.554523 133.517C3.76902 138.303 6.57602 143.36 8.52283 148.8C9.4736 151.442 10.1301 154.218 10.447 157.018C10.7866 159.817 10.5828 162.661 10.1301 165.438C9.29248 170.585 7.11935 175.552 3.24837 179.141C-0.554699 182.64 -5.6481 184.288 -10.7641 184.221C-15.8575 184.175 -21.1094 182.392 -25.003 179.073C-29.372 175.371 -31.681 170.066 -34.7824 165.37C-35.4841 164.354 -36.2085 163.361 -37.0008 162.391C-37.5441 161.804 -38.0874 161.262 -38.676 160.72C-39.0382 160.427 -39.423 160.133 -39.8078 159.862C-40.1021 159.682 -40.3964 159.501 -40.6907 159.343C-41.0981 159.162 -41.5056 158.982 -41.9131 158.801C-42.3658 158.665 -42.8186 158.553 -43.2714 158.44C-43.543 158.395 -43.8146 158.349 -44.0863 158.327C-44.539 158.304 -44.9691 158.304 -45.4219 158.327C-45.6256 158.349 -45.8294 158.372 -46.0331 158.417C-46.4859 158.53 -46.916 158.643 -47.3687 158.778C-47.5951 158.869 -47.8215 158.959 -48.0252 159.072C-48.2742 159.207 -48.5459 159.343 -48.7949 159.523C-48.9533 159.659 -49.1344 159.794 -49.3155 159.93C-49.4966 160.11 -49.6777 160.291 -49.8362 160.471C-50.0399 160.72 -50.2437 160.991 -50.4248 161.239C-50.5379 161.442 -50.6738 161.646 -50.787 161.849C-50.9681 162.255 -51.1491 162.639 -51.3076 163.045C-51.466 163.564 -51.6245 164.084 -51.7603 164.603C-51.8962 165.348 -51.9867 166.093 -52.0546 166.86C-52.0999 167.718 -52.0773 168.531 -52.0546 169.389C-51.9188 170.969 -51.6924 172.549 -51.3981 174.107C-51.0359 175.8 -50.5606 177.471 -49.9946 179.141C-49.7909 179.683 -49.5645 180.225 -49.3155 180.767C-49.0891 181.195 -48.8627 181.602 -48.6137 182.008C-48.5685 182.053 -48.5459 182.099 -48.5232 182.144C-46.7802 182.573 -45.4672 184.176 -45.4672 186.004C-45.4672 188.171 -47.2781 190 -49.474 190C-52.0093 189.932 -54.092 188.171 -55.4049 186.049ZM122.366 22.5145C121.619 24.1625 120.985 25.8781 120.306 27.5713C121.098 28.8129 121.891 30.0319 122.66 31.2735C124.154 33.7116 125.626 36.1724 127.029 38.6557C127.029 37.8881 127.052 37.1431 127.074 36.3755C127.097 35.3597 126.961 34.3212 126.916 33.2827C126.871 32.3572 126.825 31.4316 126.78 30.4834C126.576 28.6774 126.395 26.8489 126.101 25.0429C125.761 22.8757 125.399 20.7084 125.06 18.5412C124.969 18.0671 124.901 17.5704 124.833 17.0964C124.041 18.9249 123.203 20.7084 122.366 22.5145ZM108.308 8.04367C108.421 8.292 108.534 8.54037 108.67 8.78869C110.527 12.4685 112.722 15.9451 114.986 19.3991C116.458 15.9225 118.269 12.5587 119.604 9.01439C119.604 8.99181 119.604 8.96933 119.627 8.96933C119.491 8.92418 119.378 8.85644 119.242 8.81129C118.948 8.72099 118.631 8.63058 118.314 8.56286C117.431 8.40483 116.525 8.26942 115.597 8.17912C114.149 8.11139 112.722 8.06627 111.274 8.06627C111.16 8.06627 111.047 8.06627 110.934 8.06627C110.074 8.04369 109.191 8.04367 108.308 8.04367Z" fill="#3841B9"/>
<path d="M46.5762 64.6849C46.5762 64.6849 46.5989 64.7076 46.5989 64.7301C46.5989 64.685 46.5762 64.6849 46.5762 64.6849Z" fill="#3841B9"/>
<path d="M46.5989 64.7075C46.5989 64.7075 46.5989 64.7301 46.6215 64.7301C46.6215 64.7301 46.6215 64.7301 46.5989 64.7075Z" fill="#3841B9"/>
<path d="M46.3498 64.3237C46.3498 64.3237 46.3724 64.3463 46.3724 64.3689C46.3498 64.3463 46.3498 64.3237 46.3498 64.3237Z" fill="#3841B9"/>
<path d="M43.4523 40.8228C43.4523 40.8454 43.4523 40.8454 43.4749 40.868C43.4749 40.8454 43.4749 40.8454 43.4523 40.8228Z" fill="#3841B9"/>
</svg>
