<svg width="78" height="98" viewBox="0 0 78 98" fill="none" xmlns="http://www.w3.org/2000/svg">
<path fill-rule="evenodd" clip-rule="evenodd" d="M20.0804 90.2478C21.5043 91.2463 22.6537 92.5519 23.6524 93.9626C23.9263 94.3411 24.0292 94.7874 23.9788 95.2322C23.9227 95.8776 23.5738 96.4975 23.0238 96.8516C22.0362 97.487 20.8033 97.1435 20.1515 96.2238C20.1097 96.1611 20.0669 96.1101 20.0251 96.0473C19.6743 95.6031 19.3234 95.1589 18.947 94.7361C18.7077 94.5026 18.4566 94.268 18.1928 94.0441C17.2131 93.281 16.1884 92.5743 15.1659 91.8692C14.6194 91.4923 14.0735 91.1159 13.5355 90.7315C12.2148 89.7877 10.9473 88.7474 9.69103 87.7164L9.59124 87.6346C9.44747 87.517 9.3034 87.3994 9.15916 87.2818C7.50147 85.9293 5.82291 84.5599 4.33916 83.0172C3.561 82.1931 2.8073 81.3592 2.131 80.4493L2.10027 80.4073C1.59167 79.7119 1.03817 78.9552 0.76263 78.1317C0.501904 77.3289 0.480544 76.4877 0.990871 75.7754C1.20682 75.4632 1.52514 75.1953 1.87909 75.0605C2.11115 74.9646 2.35219 74.9072 2.59232 74.8877C2.77384 74.6089 2.9712 74.341 3.19102 74.0869C4.41638 72.6158 5.84357 71.3093 7.26142 70.0112C7.59679 69.7042 7.93164 69.3976 8.26317 69.0895L8.25043 69.1002C9.72028 67.6674 11.156 66.2199 12.5158 64.6948C13.9139 63.1376 15.2681 61.541 16.6 59.9308C17.1699 59.2118 17.7291 58.4802 18.2776 57.7358L19.1638 56.5006C19.6349 55.8323 20.353 55.4453 21.1847 55.5176C22.3209 55.6163 23.1637 56.647 23.0776 57.7744C23.0425 58.3152 22.8301 58.7223 22.5326 59.1575C22.3972 59.3585 22.2286 59.533 22.0289 59.6575C21.1438 60.881 20.2372 62.079 19.2751 63.2367C18.063 64.6919 16.8422 66.1108 15.5862 67.5267C14.3822 68.888 13.113 70.1846 11.8108 71.4546C10.7875 72.4506 9.74168 73.4285 8.69854 74.4038C8.47998 74.6081 8.26155 74.8123 8.04345 75.0166C7.46335 75.581 6.89396 76.158 6.36835 76.7744C6.33028 76.8144 6.29793 76.8613 6.26753 76.9054C6.25646 76.9215 6.24565 76.9371 6.2349 76.952C6.25249 76.9661 6.26706 76.9766 6.28021 76.9854C6.29182 76.9932 6.30233 76.9996 6.31283 77.006C6.45899 77.0896 6.60515 77.1733 6.75234 77.2451C7.32171 77.4837 7.88344 77.6744 8.46962 77.8553L8.6898 77.9156C10.9004 78.5199 13.1323 79.1301 15.3933 79.5324C16.9065 79.7648 18.416 79.8415 19.9377 79.9188C20.1962 79.932 20.455 79.9451 20.7143 79.9591C21.0231 79.9626 21.3312 79.9673 21.6391 79.972C22.7415 79.9887 23.84 80.0053 24.95 79.9723C26.406 79.9214 27.8544 79.8226 29.3156 79.713C29.5022 79.6911 29.6887 79.6695 29.8753 79.6479C30.8449 79.5354 31.8131 79.4231 32.7767 79.2689L32.7886 79.2669C34.2697 79.0182 35.7508 78.7696 37.2223 78.4965C38.3597 78.2886 39.4991 78.0576 40.6321 77.8279C40.8968 77.7743 41.1611 77.7207 41.4249 77.6675C42.2196 77.5129 43.0019 77.3142 43.7827 77.1158C44.1577 77.0205 44.5324 76.9253 44.9079 76.8352C44.8529 76.844 44.8015 76.8569 44.7517 76.8695C44.7148 76.8789 44.6789 76.8879 44.6431 76.8949L44.8333 76.8409C46.7777 76.2891 48.7093 75.7408 50.6023 75.0008C52.0466 74.4052 53.4406 73.7106 54.8034 72.966C55.9453 72.3204 57.0454 71.612 58.1027 70.8527C58.9868 70.1847 59.8282 69.4658 60.6385 68.6968C61.5792 67.7855 62.4526 66.8329 63.295 65.8303C63.8914 65.0782 64.442 64.3104 64.9604 63.5043C65.429 62.7293 65.8411 61.9257 66.22 61.0957C66.5786 60.2284 66.902 59.358 67.1796 58.4719C67.5 57.3648 67.7501 56.2517 67.9309 55.1208C68.0924 53.9408 68.1846 52.743 68.2183 51.5401C68.2183 51.2682 68.2173 51.008 68.2173 50.7362C66.3639 52.644 64.3226 54.4054 62.0542 55.7925C59.5235 57.346 56.5921 58.7582 53.5562 58.79C50.662 58.8224 47.895 57.9319 45.4271 56.4527C43.1053 55.057 40.9603 53.1212 39.4962 50.8189C37.8757 48.2783 37.0289 45.3913 37.0427 42.3781C37.0525 39.4117 38.0325 36.5533 39.864 34.218C41.6562 31.9266 44.3066 30.49 47.1545 30.0398C50.2301 29.5504 53.4412 29.6755 56.4973 30.2247C59.414 30.7498 62.3831 31.6225 64.8719 33.269C67.3159 34.888 69.2317 37.2886 70.3908 39.9782C70.4585 40.1496 70.5273 40.3093 70.595 40.4807C70.8074 40.0736 71.0091 39.6536 71.198 39.2445C71.771 37.9466 72.2641 36.6181 72.6771 35.2591C72.9907 34.1437 73.2496 33.0236 73.4556 31.8775C73.4602 31.8384 73.4665 31.7994 73.4763 31.7607C73.4772 31.7522 73.4781 31.7437 73.4789 31.735C73.6801 30.3694 73.7993 28.9966 73.8365 27.6167L73.8375 27.605C73.8413 27.5613 73.841 27.5128 73.8419 27.4625C73.8455 25.7818 73.756 24.1266 73.5877 22.4645L73.5185 21.9727C73.2733 20.2241 73.0297 18.4881 72.6065 16.7759C72.411 16.0379 72.1803 15.2967 71.9241 14.577C71.6802 13.9884 71.4225 13.4222 71.1287 12.8647C70.7793 12.2669 70.4045 11.6906 70.0053 11.124C69.5271 10.5151 69.0234 9.9275 68.4953 9.34965C67.5323 8.3439 66.5184 7.38106 65.4397 6.48353C65.0425 6.16533 64.6315 5.8696 64.2068 5.59627C63.9827 5.45862 63.7576 5.33265 63.5198 5.2174C63.4059 5.16812 63.2912 5.12922 63.1764 5.09032C63.1192 5.07092 63.062 5.05152 63.0049 5.03083C62.9473 5.014 62.877 5.00789 62.8195 4.99106C62.7373 4.9775 62.6547 4.96737 62.5702 4.95873C62.4992 4.95142 62.4268 4.94513 62.352 4.93863C61.2158 4.83995 60.3602 3.81994 60.4591 2.68187C60.5579 1.54381 61.5882 0.687511 62.7127 0.785172L62.8415 0.796361C63.8117 0.904286 64.759 1.14017 65.6273 1.60571C66.6652 2.15691 67.6323 2.84381 68.5103 3.60572C69.3883 4.36764 70.226 5.18509 71.0637 6.0026C72.643 7.52285 74.0307 9.34567 75.0166 11.3109C76.113 13.4986 76.747 15.847 77.1768 18.2368C77.7435 21.3596 78.0561 24.5549 77.9928 27.7294C77.9744 28.4844 77.9337 29.2256 77.8588 29.952C77.4848 34.258 76.2909 38.4928 74.3046 42.3396C73.6379 43.6294 72.8795 44.8875 72.0549 46.0927C72.1796 46.9664 72.2575 47.8361 72.311 48.7156C72.6627 54.8578 71.5196 61.2249 68.0492 66.3969C67.14 67.7601 66.1082 69.0418 64.978 70.2322C63.9655 71.291 62.9072 72.3339 61.7761 73.2642C59.4786 75.1216 56.9255 76.6612 54.2553 77.9188C51.1293 79.3969 47.8214 80.3864 44.481 81.2075C42.2615 81.7595 40.0267 82.2156 37.7726 82.6227C36.6089 82.8408 35.4345 83.0461 34.2611 83.2398C33.1239 83.4247 31.9897 83.5745 30.8448 83.7115C28.554 83.9972 26.2561 84.0932 23.9496 84.153C23.1335 84.1708 22.3209 84.149 21.5082 84.1272C21.2376 84.1199 20.967 84.1126 20.6963 84.1069C19.3049 84.0924 17.8962 84.0055 16.5161 83.862C14.3051 83.6357 12.1372 83.1281 9.98841 82.5614C10.8136 83.2685 11.6554 83.956 12.4958 84.6425L12.6822 84.7939L12.983 85.0325C14.4398 86.1886 15.901 87.3481 17.4428 88.411C18.3341 89.0204 19.2019 89.6278 20.0804 90.2478ZM73.4759 31.7635C73.4692 31.8015 73.4625 31.8396 73.4556 31.8775C73.452 31.9078 73.4494 31.9382 73.4468 31.9686C73.4503 31.9275 73.4566 31.8897 73.4628 31.8518C73.4676 31.8228 73.4724 31.7938 73.4759 31.7635ZM73.4759 31.7635L73.4768 31.7584L73.4763 31.7607L73.4759 31.7635ZM41.5948 39.6998C41.4899 40.0926 41.4084 40.4875 41.3259 40.8941C41.2938 41.1277 41.2734 41.3623 41.2403 41.6077C41.2199 41.8424 41.2006 42.0653 41.1919 42.301C41.1939 42.8213 41.2193 43.3437 41.2682 43.8681C41.3405 44.3945 41.448 44.924 41.5681 45.4428C41.6878 45.8314 41.8192 46.2211 41.9623 46.6118C42.1492 47.0418 42.3488 47.4611 42.5719 47.8824C42.7969 48.2802 43.0358 48.6556 43.2981 49.033C43.6255 49.4752 43.9677 49.8832 44.3334 50.2933C44.8539 50.8231 45.4008 51.3199 45.9732 51.7952C46.4601 52.1685 46.9607 52.5193 47.4751 52.8476C48.0022 53.1653 48.544 53.4489 49.089 53.6971C49.556 53.8914 50.0367 54.0632 50.5185 54.2232C50.9565 54.344 51.4199 54.4434 51.8727 54.53C52.2689 54.5881 52.6554 54.6216 53.043 54.6435C53.3741 54.6367 53.6934 54.6289 54.0265 54.5988C54.4094 54.5374 54.7924 54.4761 55.1774 54.3914C55.7091 54.2484 56.2204 54.0682 56.7328 53.8763C57.4916 53.5639 58.2184 53.2133 58.9375 52.8147C59.783 52.3207 60.608 51.7894 61.401 51.22C62.4153 50.4611 63.3677 49.6523 64.2907 48.7861C65.3228 47.7863 66.3126 46.7486 67.2203 45.6373C67.3654 45.4608 67.5116 45.2724 67.6578 45.0842C67.5982 44.819 67.5396 44.5419 67.4801 44.2767C67.3029 43.5993 67.0895 42.9306 66.8293 42.2578C66.595 41.6937 66.3256 41.1265 66.0308 40.5808C65.7532 40.1074 65.4512 39.6438 65.1365 39.1909C64.8488 38.8349 64.56 38.4907 64.2586 38.1571C63.954 37.8588 63.6367 37.5712 63.3067 37.2942C63.0516 37.1065 62.8071 36.9317 62.551 36.7558C61.9674 36.4095 61.3807 36.0985 60.7685 35.8089C59.9944 35.4817 59.2162 35.2012 58.4116 34.954C57.3864 34.664 56.3551 34.4444 55.308 34.2707C54.0598 34.1032 52.8075 33.9826 51.548 33.9442C50.6399 33.9362 49.7416 33.9527 48.8254 34.0387C48.1806 34.1245 47.5455 34.235 46.9191 34.3815C46.7473 34.4336 46.5793 34.486 46.4128 34.5407C46.2855 34.5825 46.159 34.6256 46.0324 34.671C45.7009 34.8195 45.3693 34.968 45.0474 35.141C44.8223 35.287 44.609 35.4339 44.3956 35.5809C44.1674 35.762 43.9637 35.9335 43.7579 36.1284C43.5522 36.3233 43.3571 36.531 43.1727 36.7514C42.9323 37.0733 42.7036 37.3963 42.4856 37.732C42.2911 38.0698 42.1082 38.4085 41.9478 38.7611C41.8149 39.0687 41.7054 39.3783 41.5948 39.6998Z" fill="#7D809E"/>
</svg>
