<svg width="53" height="51" viewBox="0 0 53 51" fill="none" xmlns="http://www.w3.org/2000/svg">
<path d="M1.29144 46.1749C0.28349 47.1186 0.231335 48.7006 1.17495 49.7086C2.11856 50.7165 3.70061 50.7687 4.70856 49.8251L1.29144 46.1749ZM52.4986 4.08237C52.5441 2.70241 51.4623 1.54685 50.0824 1.50135L27.5946 0.760001C26.2146 0.714508 25.0591 1.79631 25.0136 3.17627C24.9681 4.55623 26.0499 5.71179 27.4298 5.75729L47.419 6.41627L46.76 26.4054C46.7145 27.7854 47.7963 28.9409 49.1763 28.9864C50.5562 29.0319 51.7118 27.9501 51.7573 26.5702L52.4986 4.08237ZM4.70856 49.8251L51.7086 5.82505L48.2914 2.17495L1.29144 46.1749L4.70856 49.8251Z" fill="#F3F7AD"/>
</svg>
