<svg width="445" height="474" viewBox="0 0 445 474" fill="none" xmlns="http://www.w3.org/2000/svg">
<path fill-rule="evenodd" clip-rule="evenodd" d="M398.41 235.613C416.418 212.495 426.727 185.643 426.727 157C426.727 70.2913 332.259 0 215.727 0C99.1945 0 4.72655 70.2913 4.72655 157C4.72655 188.873 17.4908 218.527 39.4233 243.288C8.85095 274.678 -6.15804 319.455 3.16528 364.716C18.3193 438.282 92.0178 485.268 167.776 469.663C187.276 465.646 205.011 457.874 220.341 447.291C251.077 469.391 291.13 479.035 331.776 470.663C407.533 455.057 456.662 382.769 441.508 309.203C435.406 279.579 419.811 254.266 398.41 235.613Z" fill="#3F46CA"/>
</svg>
